<?xml version="1.0" encoding="utf-8"?>
<!-- Generator: Adobe Illustrator 16.0.0, SVG Export Plug-In . SVG Version: 6.00 Build 0)  -->
<!DOCTYPE svg PUBLIC "-//W3C//DTD SVG 1.1//EN" "http://www.w3.org/Graphics/SVG/1.1/DTD/svg11.dtd">
<svg version="1.1" id="图层_1" xmlns="http://www.w3.org/2000/svg" xmlns:xlink="http://www.w3.org/1999/xlink" x="0px" y="0px"
	 width="595.28px" height="213.684px" viewBox="0 0 595.28 213.684" enable-background="new 0 0 595.28 213.684"
	 xml:space="preserve">
<rect x="10.593" y="12.658" fill="#DE2726" width="572.46" height="190.821"/>
<g>
	<defs>
		<rect id="SVGID_1_" x="10.593" y="12.658" width="572.46" height="190.821"/>
	</defs>
	<clipPath id="SVGID_2_">
		<use xlink:href="#SVGID_1_"  overflow="visible"/>
	</clipPath>
	<path clip-path="url(#SVGID_2_)" fill="#FFFFFF" d="M259.993,76.969c-8.46,0-18.074,3.928-23.95,11.763l0.011-0.011h-0.011
		l0.011-10.524h-20.181v73.444h20.17v-41.786c0-7.528,5.834-15.517,16.634-15.517c8.343,0,16.973,5.802,16.973,15.517v41.786h20.17
		v-45.529C289.819,89.23,277.728,76.969,259.993,76.969"/>
	<polygon clip-path="url(#SVGID_2_)" fill="#FFFFFF" points="433.148,78.208 414.916,128.231 396.693,78.208 373.654,78.208 
		403.872,151.62 425.97,151.62 456.188,78.208 	"/>
	<path clip-path="url(#SVGID_2_)" fill="#FFFFFF" d="M194.421,129.056c-8.492,6.29-13.341,7.793-21.091,7.793
		c-6.957,0-12.409-2.17-16.263-5.95l51.574-21.398c-1.133-7.967-4.161-15.093-8.809-20.503
		c-6.776-7.867-16.803-12.033-29.011-12.033c-22.171,0-38.89,16.364-38.89,37.968c0,22.171,16.75,37.958,41.113,37.958
		c13.648,0,27.603-6.47,34.125-14.019L194.421,129.056z M155.669,100.332c3.441-4.611,8.905-7.322,15.522-7.322
		c7.263,0,12.779,4.156,15.617,10.281l-35.227,14.606C150.619,110.401,152.535,104.535,155.669,100.332"/>
	<polygon clip-path="url(#SVGID_2_)" fill="#FFFFFF" points="130.004,133.123 84.158,133.123 84.158,56.232 63.723,56.232 
		63.723,151.651 130.004,151.651 	"/>
	<path clip-path="url(#SVGID_2_)" fill="#FFFFFF" d="M492.398,152.879c-22.055,0-39.334-16.422-39.334-37.947
		c0-21.292,17.396-37.968,39.599-37.968c22.055,0,39.335,16.427,39.335,37.968C531.998,136.214,514.602,152.879,492.398,152.879
		 M492.398,94.249c-11.266,0-19.439,8.534-19.439,20.684c0,11.583,8.661,20.668,19.704,20.668c11.266,0,19.45-8.767,19.45-20.668
		C512.113,103.333,503.441,94.249,492.398,94.249"/>
	<path clip-path="url(#SVGID_2_)" fill="#FFFFFF" d="M337.137,152.879c-22.055,0-39.345-16.422-39.345-37.947
		c0-21.292,17.407-37.968,39.61-37.968c22.055,0,39.334,16.427,39.334,37.968C376.735,136.214,359.34,152.879,337.137,152.879
		 M337.137,94.249c-11.266,0-19.45,8.534-19.45,20.684c0,11.583,8.671,20.668,19.715,20.668c11.266,0,19.439-8.767,19.439-20.668
		C356.841,103.333,348.18,94.249,337.137,94.249"/>
	<path clip-path="url(#SVGID_2_)" fill="#FFFFFF" d="M534.761,142.927H531.5v-1.864h8.544v1.864h-3.261v8.714h-2.022V142.927z
		 M542.311,141.063h2.159l3.198,5.019l3.187-5.019h2.107v10.578h-1.97v-7.507l-3.261,5.061h-0.212l-3.251-5.061v7.507h-1.958
		V141.063z"/>
</g>
</svg>
